<svg width="143" height="36" viewBox="0 0 143 36" fill="none" xmlns="http://www.w3.org/2000/svg">
<path d="M142.955 32.2994C142.001 26.0424 140.549 19.7119 137.279 14.2187C134.36 9.3129 129.96 5.28842 124.783 2.86492C114.281 -2.05552 102.299 -0.616112 93.3961 6.87471C90.7561 9.09258 88.5415 11.8098 86.8401 14.8062C83.9068 9.29821 78.9348 4.97997 72.8481 2.86492C63.8428 -0.263603 53.7668 3.11461 47.7241 10.3117C46.1841 12.1477 44.9228 14.1599 43.9695 16.2896C39.1001 9.37165 30.9455 4.77434 22.3508 4.93591C15.8828 5.03872 10.0895 7.80005 6.23213 13.0289C2.84413 17.6262 1.34813 23.3839 0.0868013 28.8625C-0.763865 32.5491 4.89747 34.106 5.74813 30.4194C6.7748 25.9836 7.8748 21.4157 10.2948 17.494C12.9641 13.1758 17.3055 10.8845 22.3655 10.7964C31.2388 10.6348 39.5695 16.9947 42.0041 25.4989C42.9428 28.7597 47.5921 27.9959 47.7681 24.7205C48.2521 15.8784 56.1575 7.84411 65.0601 7.55035C73.8748 7.25659 82.5721 14.4537 83.6721 23.3104C83.8481 24.7646 84.6548 26.013 86.2095 26.1893C87.6028 26.3508 89.0841 25.5283 89.4215 24.0889C91.5041 15.2615 98.6468 8.07911 107.549 6.19907C116.496 4.30433 126.543 8.50506 131.559 16.1428C135.02 21.4304 136.355 27.7021 137.293 33.871C137.528 35.4426 139.508 36.3092 140.901 35.9273C142.588 35.4573 143.189 33.871 142.955 32.2994Z" fill="black"/>
</svg>
